<svg width="706" height="12" viewBox="0 0 706 12" fill="none" xmlns="http://www.w3.org/2000/svg">
<path d="M1 1C9.18939 1 9.18939 11 17.3788 11C25.5682 11 25.5682 1 33.7576 1C41.947 1 41.947 11 50.1172 11C58.3068 11 58.3068 1 66.4768 1C74.6663 1 74.6663 11 82.8363 11C91.0259 11 91.0259 1 99.2148 1C107.404 1 107.404 11 115.594 11C123.783 11 123.783 1 131.973 1C140.162 1 140.162 11 148.352 11C156.541 11 156.541 1 164.73 1C172.92 1 172.92 11 181.109 11C189.298 11 189.298 1 197.488 1C205.677 1 205.677 11 213.847 11C222.037 11 222.037 1 230.207 1C238.397 1 238.397 11 246.567 11C254.756 11 254.756 1 262.945 1C271.135 1 271.135 11 279.324 11C287.513 11 287.513 1 295.703 1C303.892 1 303.892 11 312.082 11C320.271 11 320.271 1 328.46 1C336.65 1 336.65 11 344.839 11C353.029 11 353.029 1 361.218 1C369.407 1 369.407 11 377.578 11C385.767 11 385.767 1 393.937 1C402.127 1 402.127 11 410.297 11C418.486 11 418.486 1 426.675 1C434.865 1 434.865 11 443.054 11C451.244 11 451.244 1 459.433 1C467.623 1 467.623 11 475.793 11C483.983 11 483.983 1 492.153 1C500.342 1 500.342 11 508.512 11C516.702 11 516.702 1 524.891 1C533.08 1 533.08 11 541.27 11C549.459 11 549.459 1 557.648 1C565.838 1 565.838 11 574.027 11C582.216 11 582.216 1 590.406 1C598.595 1 598.595 11 606.785 11C614.974 11 614.974 1 623.164 1C631.353 1 631.353 11 639.523 11C647.713 11 647.713 1 655.883 1C664.072 1 664.072 11 672.242 11C680.432 11 680.432 1 688.621 1C696.81 1 696.81 11 705 11" stroke="#A1A6B4" stroke-miterlimit="10" stroke-linecap="square"/>
</svg>
