<svg width="34" height="34" viewBox="0 0 34 34" fill="none" xmlns="http://www.w3.org/2000/svg">
<path d="M23.3 33.6666V20.7666H27.6204L28.2667 15.7518H23.3V12.5518C23.3 11.0999 23.7037 10.1092 25.7852 10.1092H28.4407V5.62399C27.1552 5.48759 25.8631 5.42145 24.5704 5.42584C20.7426 5.42584 18.1222 7.76288 18.1222 12.0555V15.7518H13.7926V20.7666H18.1222V33.6666H2.18518C1.69404 33.6666 1.22301 33.4715 0.875723 33.1242C0.528433 32.7769 0.333328 32.3059 0.333328 31.8147V2.1851C0.333328 1.69396 0.528433 1.22294 0.875723 0.875647C1.22301 0.528357 1.69404 0.333252 2.18518 0.333252H31.8148C32.306 0.333252 32.777 0.528357 33.1243 0.875647C33.4716 1.22294 33.6667 1.69396 33.6667 2.1851V31.8147C33.6667 32.3059 33.4716 32.7769 33.1243 33.1242C32.777 33.4715 32.306 33.6666 31.8148 33.6666H23.3Z" fill="#A1A6B4"/>
</svg>
