<svg width="34" height="34" viewBox="0 0 34 34" fill="none" xmlns="http://www.w3.org/2000/svg">
<rect width="33.33" height="33.33" rx="2" fill="#A1A6B4"/>
<path d="M20.9404 11.9923C20.1518 11.2694 18.7687 10.4043 16.7184 10.4043C13.8309 10.4043 11.3802 12.2649 10.4945 14.8364C10.2761 15.5001 10.1427 16.2111 10.1427 16.9459C10.1427 17.6806 10.2761 18.3917 10.5066 19.0553C11.3802 21.6269 13.8309 23.4874 16.7184 23.4874C18.3441 23.4874 19.5816 23.0489 20.5036 22.4208C21.9595 21.4254 22.6147 19.9441 22.7359 18.9605H16.7184V15.0024H26.9701C27.1278 15.666 27.2007 16.3059 27.2007 17.1829C27.2007 20.4299 26.0116 23.1675 23.9492 25.028C22.1414 26.6634 19.6665 27.6115 16.7184 27.6115C12.4478 27.6115 8.7596 25.2176 6.96405 21.7335C6.22401 20.2877 5.79938 18.6642 5.79938 16.9459C5.79938 15.2275 6.22401 13.604 6.96405 12.1582C8.7596 8.67409 12.4478 6.28027 16.7184 6.28027C19.6665 6.28027 22.1294 7.33499 24.022 9.05333L20.9404 11.9923Z" fill="#121723"/>
</svg>
