<svg width="47" height="47" viewBox="0 0 47 47" fill="none" xmlns="http://www.w3.org/2000/svg">
<g clip-path="url(#clip0_7_159)">
<path d="M23.5 47C36.4785 47 47 36.4786 47 23.5C47 10.5213 36.4785 0 23.5 0C10.5215 0 0 10.5213 0 23.5C0 36.4786 10.5215 47 23.5 47Z" fill="#F0D288"/>
<path d="M39.8053 10.6786L31.0893 7.46582L18.5548 25.5301L19.8028 17.3319L12.9733 13.3536L0.408691 28.4685C0.99694 31.4572 2.13888 34.2442 3.72201 36.7166L11.2182 27.6626L8.45975 38.2965L17.007 41.424L29.7058 23.1395L26.9237 33.5956L33.8477 37.6425L47.1363 24.2464C47.1391 24.096 47.1407 23.9443 47.1407 23.7933C47.1407 20.6395 46.534 17.6285 45.4322 14.8735L37.7131 22.6869L39.8053 10.6786Z" fill="#121723"/>
</g>
<defs>
<clipPath id="clip0_7_159">
<rect width="47" height="47" rx="23.5" fill="white"/>
</clipPath>
</defs>
</svg>
