<svg width="16" height="12" viewBox="0 0 16 12" fill="none" xmlns="http://www.w3.org/2000/svg">
<g clip-path="url(#clip0_55_2079)">
<path fill-rule="evenodd" clip-rule="evenodd" d="M0 0H22.8V0.923438H0V0ZM0 1.84688H22.8V2.77031H0V1.84688ZM0 3.69141H22.8V4.61719H0V3.69141ZM0 5.53828H22.8V6.46172H0V5.53828ZM0 7.38516H22.8V8.30859H0V7.38516ZM0 9.22969H22.8V10.1531H0V9.22969ZM0 11.0766H22.8V12H0V11.0766Z" fill="#BD3D44"/>
<path fill-rule="evenodd" clip-rule="evenodd" d="M0 0.923462H22.8V1.8469H0V0.923462ZM0 2.77034H22.8V3.69143H0V2.77034ZM0 4.61487H22.8V5.53831H0V4.61487ZM0 6.46174H22.8V7.38518H0V6.46174ZM0 8.30862H22.8V9.23206H0V8.30862ZM0 10.1532H22.8V11.0766H0V10.1532Z" fill="white"/>
<path fill-rule="evenodd" clip-rule="evenodd" d="M0 0H9.11953V6.46172H0V0Z" fill="#192F5D"/>
<path fill-rule="evenodd" clip-rule="evenodd" d="M0.759277 0.276611L0.843652 0.53208H1.11084L0.895215 0.689111L0.977246 0.946923L0.759277 0.787549L0.543652 0.94458L0.625684 0.689111L0.407715 0.53208H0.67959L0.759277 0.276611ZM2.28037 0.276611L2.3624 0.53208H2.63193L2.41396 0.689111L2.496 0.946923L2.28037 0.787549L2.0624 0.94458L2.14443 0.689111L1.92881 0.53208H2.196L2.28037 0.276611ZM3.79912 0.276611L3.8835 0.53208H4.14834L3.93272 0.689111L4.01475 0.946923L3.79678 0.787549L3.58115 0.94458L3.66318 0.689111L3.44522 0.53208H3.71475L3.79912 0.276611ZM5.32022 0.276611L5.40225 0.53208H5.67178L5.45381 0.689111L5.53818 0.946923L5.32022 0.787549L5.10225 0.94458L5.18662 0.689111L4.96865 0.53208H5.23584L5.32022 0.276611ZM6.83897 0.276611L6.92334 0.53208H7.19053L6.9749 0.689111L7.05693 0.946923L6.83897 0.787549L6.62334 0.94458L6.70537 0.689111L6.48975 0.53208H6.75693L6.83897 0.276611ZM8.36006 0.276611L8.44209 0.53208H8.71162L8.49365 0.689111L8.57803 0.946923L8.36006 0.787549L8.14209 0.94458L8.22647 0.689111L8.0085 0.53208H8.27803L8.36006 0.276611ZM1.521 0.923486L1.60303 1.17895H1.87256L1.65459 1.33599L1.73428 1.59145L1.52334 1.43442L1.30537 1.59145L1.38271 1.33599L1.17178 1.17895H1.43896L1.521 0.923486ZM3.03975 0.923486L3.12412 1.17895H3.39131L3.17334 1.33599L3.25771 1.59145L3.03975 1.43442L2.82178 1.59145L2.90615 1.33599L2.68818 1.17895H2.95772L3.03975 0.923486ZM4.56084 0.923486L4.64287 1.17895H4.9124L4.69443 1.33599L4.77647 1.59145L4.56084 1.43442L4.34287 1.59145L4.4249 1.33599L4.20928 1.17895H4.47647L4.56084 0.923486ZM6.07959 0.923486L6.16397 1.17895H6.43115L6.21318 1.33599L6.29756 1.59145L6.07959 1.43442L5.86397 1.59145L5.946 1.33599L5.72803 1.17895H5.9999L6.07959 0.923486ZM7.60068 0.923486L7.68272 1.17895H7.95225L7.73428 1.33599L7.81631 1.59145L7.60068 1.43442L7.38272 1.59145L7.46475 1.33599L7.24912 1.17895H7.51631L7.60068 0.923486ZM0.759277 1.56802L0.843652 1.82817H1.11084L0.895215 1.9852L0.977246 2.24067L0.759277 2.0813L0.543652 2.24067L0.625684 1.98286L0.407715 1.82583H0.67959L0.759277 1.56802ZM2.28037 1.56802L2.3624 1.82583H2.63193L2.41396 1.98286L2.496 2.23833L2.28037 2.07895L2.0624 2.23833L2.14443 1.98052L1.92881 1.82349H2.196L2.28037 1.56802ZM3.79912 1.56802L3.8835 1.82583H4.14834L3.93272 1.98286L4.01475 2.23833L3.79678 2.07895L3.58115 2.23833L3.66318 1.98052L3.44522 1.82349H3.71475L3.79912 1.56802ZM5.32022 1.56802L5.40225 1.82583H5.67178L5.45381 1.98286L5.53818 2.23833L5.32022 2.07895L5.10225 2.23833L5.18662 1.98052L4.96865 1.82349H5.23584L5.32022 1.56802ZM6.83897 1.56802L6.92334 1.82583H7.19053L6.9749 1.98286L7.05693 2.23833L6.83897 2.07895L6.62334 2.23833L6.70537 1.98052L6.48975 1.82349H6.75693L6.83897 1.56802ZM8.36006 1.56802L8.44209 1.82583H8.71162L8.49365 1.98286L8.57803 2.23833L8.36006 2.07895L8.14209 2.23833L8.22647 1.98052L8.0085 1.82349H8.27803L8.36006 1.56802ZM1.521 2.21489L1.60303 2.47036H1.87256L1.65459 2.62739L1.73662 2.8852L1.521 2.72583L1.30303 2.88286L1.38506 2.62739L1.16943 2.47036H1.43662L1.521 2.21489ZM3.03975 2.21489L3.12412 2.47036H3.39131L3.17334 2.62739L3.25771 2.8852L3.03975 2.72583L2.82178 2.88286L2.90615 2.62739L2.68818 2.47036H2.95772L3.03975 2.21489ZM4.56084 2.21489L4.64287 2.47036H4.9124L4.69443 2.62739L4.77647 2.8852L4.56084 2.72583L4.34287 2.88286L4.4249 2.62739L4.20928 2.47036H4.47647L4.56084 2.21489ZM6.07959 2.21489L6.16397 2.47036H6.43115L6.21553 2.62739L6.29756 2.8852L6.07959 2.72583L5.86397 2.88286L5.946 2.62739L5.72803 2.47036H5.9999L6.07959 2.21489ZM7.60068 2.21489L7.68272 2.47036H7.95225L7.73428 2.62739L7.81631 2.8852L7.60068 2.72583L7.38272 2.88286L7.46475 2.62739L7.24912 2.47036H7.51631L7.60068 2.21489ZM0.759277 2.86177L0.843652 3.11723H1.11084L0.895215 3.27427L0.977246 3.53208L0.759277 3.3727L0.543652 3.52973L0.625684 3.27427L0.407715 3.11723H0.67959L0.759277 2.86177ZM2.28037 2.86177L2.3624 3.11723H2.63193L2.41396 3.27427L2.496 3.52973L2.28037 3.3727L2.0624 3.52973L2.14443 3.27427L1.92881 3.11723H2.196L2.28037 2.86177ZM3.79912 2.86177L3.8835 3.11723H4.14834L3.93272 3.27427L4.01475 3.53208L3.79678 3.3727L3.58115 3.52973L3.66318 3.27427L3.44522 3.11723H3.71475L3.79912 2.86177ZM5.32022 2.86177L5.40225 3.11723H5.67178L5.45381 3.27427L5.53818 3.53208L5.32022 3.3727L5.10225 3.52973L5.18662 3.27427L4.96865 3.11723H5.23584L5.32022 2.86177ZM6.83897 2.86177L6.92334 3.11723H7.19053L6.9749 3.27427L7.05693 3.53208L6.83897 3.3727L6.62334 3.52973L6.70537 3.27427L6.48975 3.11723H6.75693L6.83897 2.86177ZM8.36006 2.86177L8.44209 3.11723H8.71162L8.49365 3.27427L8.57803 3.53208L8.36006 3.3727L8.14209 3.52973L8.22647 3.27427L8.0085 3.11723H8.27803L8.36006 2.86177ZM1.521 3.50864L1.60303 3.76411H1.87256L1.65459 3.92114L1.73662 4.17661L1.521 4.01723L1.30303 4.17661L1.38506 3.9188L1.16943 3.76177H1.43662L1.521 3.50864ZM3.03975 3.50864L3.12412 3.76411H3.39131L3.17334 3.92114L3.25771 4.17661L3.03975 4.01723L2.82178 4.17661L2.90615 3.9188L2.68818 3.76177H2.95772L3.03975 3.50864ZM4.56084 3.50864L4.64287 3.76411H4.9124L4.69443 3.92114L4.77647 4.17661L4.56084 4.01723L4.34287 4.17661L4.4249 3.9188L4.20928 3.76177H4.47647L4.56084 3.50864ZM6.07959 3.50864L6.16397 3.76411H6.43115L6.21553 3.92114L6.29756 4.17661L6.07959 4.01723L5.86397 4.17661L5.946 3.9188L5.72803 3.76177H5.9999L6.07959 3.50864ZM7.60068 3.50864L7.68272 3.76411H7.95225L7.73428 3.92114L7.81631 4.17661L7.60068 4.01723L7.38272 4.17661L7.46475 3.9188L7.24912 3.76177H7.51631L7.60068 3.50864ZM0.759277 4.15317L0.843652 4.41098H1.11084L0.895215 4.56802L0.977246 4.82114L0.759277 4.66411L0.543652 4.82114L0.625684 4.56567L0.407715 4.40864H0.67959L0.759277 4.15317ZM2.28037 4.15317L2.3624 4.41098H2.63193L2.41396 4.56802L2.49834 4.82114L2.28037 4.66411L2.0624 4.82114L2.14678 4.56567L1.92881 4.40864H2.196L2.28037 4.15317ZM3.79912 4.15317L3.8835 4.41098H4.14834L3.93272 4.56802L4.01475 4.82114L3.79678 4.66411L3.58115 4.82114L3.66318 4.56567L3.44522 4.40864H3.71475L3.79912 4.15317ZM5.32022 4.15317L5.40225 4.41098H5.67178L5.45381 4.56802L5.53818 4.82114L5.32022 4.66411L5.10225 4.82114L5.18662 4.56567L4.96865 4.40864H5.23584L5.32022 4.15317ZM6.83897 4.15317L6.92334 4.41098H7.19053L6.9749 4.56802L7.05693 4.82114L6.83897 4.66411L6.62334 4.82114L6.70537 4.56567L6.48975 4.40864H6.75693L6.83897 4.15317ZM8.36006 4.15317L8.44209 4.41098H8.71162L8.49365 4.56802L8.57803 4.82114L8.36006 4.66411L8.14209 4.82114L8.22647 4.56567L8.0085 4.40864H8.27803L8.36006 4.15317ZM1.521 4.80005L1.60303 5.05551H1.87256L1.65459 5.21255L1.73662 5.47036L1.521 5.31098L1.30303 5.46801L1.38506 5.21255L1.16943 5.05551H1.43662L1.521 4.80005ZM3.03975 4.80005L3.12412 5.05551H3.39131L3.17334 5.21255L3.25771 5.47036L3.03975 5.31098L2.82178 5.46801L2.90615 5.21255L2.68818 5.05551H2.95772L3.03975 4.80005ZM4.56084 4.80005L4.64287 5.05551H4.9124L4.69443 5.21255L4.77647 5.47036L4.56084 5.31098L4.34287 5.46801L4.4249 5.21255L4.20928 5.05551H4.47647L4.56084 4.80005ZM6.07959 4.80005L6.16397 5.05551H6.43115L6.21553 5.21255L6.29756 5.47036L6.07959 5.31098L5.86397 5.46801L5.946 5.21255L5.72803 5.05551H5.9999L6.07959 4.80005ZM7.60068 4.80005L7.68272 5.05551H7.95225L7.73428 5.21255L7.81631 5.47036L7.60068 5.31098L7.38272 5.46801L7.46475 5.21255L7.24912 5.05551H7.51631L7.60068 4.80005ZM0.759277 5.44692L0.843652 5.70239H1.11084L0.895215 5.85942L0.977246 6.11489L0.759277 5.95786L0.543652 6.11489L0.625684 5.85708L0.407715 5.70005H0.67959L0.759277 5.44692ZM2.28037 5.44692L2.3624 5.70239H2.63193L2.41396 5.85942L2.49834 6.11489L2.28037 5.95786L2.0624 6.11489L2.14678 5.85708L1.92881 5.70005H2.196L2.28037 5.44692ZM3.79912 5.44692L3.8835 5.70239H4.14834L3.9374 5.85942L4.01943 6.11489L3.80147 5.95786L3.58584 6.11489L3.66787 5.85708L3.4499 5.70005H3.71943L3.79912 5.44692ZM5.32022 5.44692L5.40225 5.70239H5.67178L5.45381 5.85942L5.53818 6.11489L5.32022 5.95786L5.10225 6.11489L5.18662 5.85708L4.96865 5.70005H5.23584L5.32022 5.44692ZM6.83897 5.44692L6.92334 5.70239H7.19053L6.9749 5.85942L7.05693 6.11489L6.83897 5.95786L6.62334 6.11489L6.70537 5.85708L6.48975 5.70005H6.75693L6.83897 5.44692ZM8.36006 5.44692L8.44209 5.70239H8.71162L8.49365 5.85942L8.57803 6.11489L8.36006 5.95786L8.14209 6.11489L8.22647 5.85708L8.0085 5.70005H8.27803L8.36006 5.44692Z" fill="white"/>
</g>
<defs>
<clipPath id="clip0_55_2079">
<rect width="16" height="12" fill="white"/>
</clipPath>
</defs>
</svg>
