<svg width="34" height="34" viewBox="0 0 34 34" fill="none" xmlns="http://www.w3.org/2000/svg">
<rect width="33.33" height="33.33" rx="2" fill="#A1A6B4"/>
<path d="M17.7487 23.3319H16.3854C16.3854 23.3319 13.3772 23.5129 10.7277 20.7544C7.83835 17.746 5.28686 11.7764 5.28686 11.7764C5.28686 11.7764 5.13973 11.3851 5.29964 11.1957C5.47938 10.983 5.96857 10.9693 5.96857 10.9693L9.22782 10.9481C9.22782 10.9481 9.53491 10.9992 9.75468 11.1607C9.93588 11.2939 10.0373 11.5429 10.0373 11.5429C10.0373 11.5429 10.5641 12.8751 11.2617 14.0803C12.6233 16.433 13.2575 16.9476 13.7198 16.6955C14.3934 16.3281 14.1914 13.3697 14.1914 13.3697C14.1914 13.3697 14.2037 12.2959 13.8522 11.8176C13.58 11.4473 13.0667 11.339 12.84 11.3088C12.6566 11.2843 12.9576 10.8586 13.3478 10.6675C13.9343 10.3802 14.9699 10.364 16.1938 10.3764C17.1473 10.3861 17.4219 10.4456 17.7946 10.5356C18.6597 10.7445 18.6327 11.4137 18.5745 12.8577L18.5745 12.8577C18.5571 13.2892 18.537 13.7898 18.537 14.368C18.537 14.4982 18.5332 14.6369 18.5293 14.7797V14.7797C18.509 15.5192 18.4858 16.3655 18.9726 16.6801C19.2223 16.8414 19.8331 16.7041 21.3603 14.1109C22.084 12.8818 22.627 11.4367 22.627 11.4367C22.627 11.4367 22.7453 11.179 22.9297 11.0687C23.1181 10.9559 23.3726 10.9906 23.3726 10.9906L26.8023 10.9694C26.8023 10.9694 27.8329 10.8465 27.9997 11.3117C28.1747 11.7999 27.6146 12.94 26.2135 14.8076C24.8827 16.5812 24.236 17.2331 24.2968 17.8105C24.3401 18.222 24.7429 18.5957 25.5137 19.3109L25.5668 19.3602C27.2548 20.9271 27.7051 21.75 27.8121 21.9455C27.8207 21.9614 27.8271 21.9731 27.8318 21.9807C28.5873 23.2336 26.9939 23.3319 26.9939 23.3319L23.9477 23.3745C23.9477 23.3745 23.2931 23.504 22.4317 22.9124C21.9813 22.6032 21.5409 22.0983 21.1214 21.6173L21.1214 21.6173C20.4798 20.8817 19.8868 20.2018 19.3806 20.3623C18.5317 20.6317 18.5583 22.4611 18.5583 22.4611C18.5583 22.4611 18.5645 22.8518 18.371 23.06C18.1605 23.2865 17.7487 23.3319 17.7487 23.3319Z" fill="#121723"/>
</svg>
